<svg xmlns="http://www.w3.org/2000/svg" xmlns:xlink="http://www.w3.org/1999/xlink" width="106.62" height="111.315" viewBox="0 0 106.62 111.315"><defs><style>.a{fill:#eae6ff;}.b{fill:#bfe2ff;opacity:0.35;}.c{fill:url(#a);}.d{fill:#feb745;}.d,.h{opacity:0.25;}.e{fill:#c9eebc;}.f{fill:#1f9fde;}.g{fill:url(#b);}.h,.j{fill:#22418a;}.i{fill:#23519b;}.k{fill:url(#c);}.l{fill:#4f4259;}.m{fill:url(#d);}.n{fill:url(#e);}.o{fill:url(#f);}.p{fill:url(#g);}.q{fill:url(#h);}.r{fill:url(#i);}.s{fill:url(#k);}.t{fill:url(#m);}.u{fill:url(#n);}.v{fill:url(#o);}.w{fill:url(#p);}.x{fill:url(#q);}.y{fill:url(#r);}.z{fill:#fe7624;}.aa{fill:#febd9f;}.ab{fill:url(#s);}.ac{fill:#ffa40b;stroke:#ff7712;}.ad{fill:#fff;}.ae{fill:#6b959f;}.af{stroke:none;}.ag{fill:none;}</style><linearGradient id="a" y1="0.5" x2="1" y2="0.5" gradientUnits="objectBoundingBox"><stop offset="0" stop-color="#50c0e0"/><stop offset="1" stop-color="#23519b"/></linearGradient><linearGradient id="b" x1="-8.872" y1="4.626" x2="-8.019" y2="4.626" gradientUnits="objectBoundingBox"><stop offset="0" stop-color="#22418a"/><stop offset="1" stop-color="#1f9fde"/></linearGradient><linearGradient id="c" x1="-0.482" y1="104.433" x2="0.501" y2="104.433" gradientUnits="objectBoundingBox"><stop offset="0" stop-color="#febd9f"/><stop offset="1" stop-color="#ffda99"/></linearGradient><linearGradient id="d" x1="0.476" y1="0.262" x2="0.529" y2="1.012" xlink:href="#c"/><linearGradient id="e" x1="0.476" y1="0.262" x2="0.529" y2="1.012" xlink:href="#c"/><linearGradient id="f" y1="0.5" x2="1" y2="0.5" gradientUnits="objectBoundingBox"><stop offset="0.298" stop-color="#22418a"/><stop offset="1" stop-color="#1f9fde"/></linearGradient><linearGradient id="g" x1="0" y1="0.5" x2="1" y2="0.5" xlink:href="#c"/><linearGradient id="h" x1="31.873" y1="58.906" x2="32.995" y2="58.906" xlink:href="#c"/><linearGradient id="i" x1="0.497" y1="0.255" x2="0.522" y2="1.009" gradientUnits="objectBoundingBox"><stop offset="0" stop-color="#ffbb01"/><stop offset="1" stop-color="#fe7624"/></linearGradient><linearGradient id="k" x1="0" y1="0.5" x2="1" y2="0.5" xlink:href="#c"/><linearGradient id="m" x1="0" y1="0.5" x2="1" y2="0.5" xlink:href="#i"/><linearGradient id="n" x1="3.265" y1="-11.461" x2="3.993" y2="-11.461" gradientUnits="objectBoundingBox"><stop offset="0" stop-color="#fe7624"/><stop offset="1" stop-color="#feb745"/></linearGradient><linearGradient id="o" x1="5.115" y1="-13.262" x2="5.659" y2="-13.262" xlink:href="#n"/><linearGradient id="p" x1="272.388" y1="-191.123" x2="273.33" y2="-191.123" xlink:href="#n"/><linearGradient id="q" x1="305.141" y1="-215.877" x2="306.048" y2="-215.877" xlink:href="#n"/><linearGradient id="r" x1="14.253" y1="-11.933" x2="14.526" y2="-11.932" xlink:href="#n"/><linearGradient id="s" x1="0" y1="0.5" x2="1" y2="0.5" xlink:href="#c"/></defs><g transform="translate(-246.123 -103.685)"><g transform="translate(246.123 103.685)"><g transform="translate(4.976)"><path class="a" d="M92.534,155.6a26.2,26.2,0,0,0,11.1,6.887c7.948,2.474,16.537,1.025,24.825,1.826a45.582,45.582,0,0,1,10.439,2.265c3.25,1.118,6.371,2.6,9.673,3.549.57.162,1.134.318,1.7.464,13.671,3.562,25.042,2.109,32.967-6.537a29.846,29.846,0,0,0,3.208-4.142,22.031,22.031,0,0,0,3.549-11.35c.008-.169.017-.333.023-.493.519-11.976-3.275-21.335-15.978-27.847a80.035,80.035,0,0,0-19.624-6.746c-5.426-1.162-12.166-1.6-15.913-6.588a37.655,37.655,0,0,0-10.649-10.074,19.56,19.56,0,0,0-7.469-2.6c-14.266-1.757-18.749,6.63-19.747,14.8a38.862,38.862,0,0,0,.323,10.772c.835,4.941-1.335,7.733-4.551,11.573-2.634,3.146-5.4,4.637-7.164,9.54A14.169,14.169,0,0,0,92.534,155.6Z" transform="translate(-88.418 -93.979)"/></g><path class="b" d="M66.637,161.411a33.6,33.6,0,0,0,45.811,31.282,7.631,7.631,0,0,1,6.075.231,17.117,17.117,0,0,0,18.42-2.367,7.666,7.666,0,0,1,4.977-1.759h.031a29.016,29.016,0,0,0,0-58.033,29.447,29.447,0,0,0-4.8.4,23.467,23.467,0,0,0-37.485-3.323,33.575,33.575,0,0,0-33.033,33.573Z" transform="translate(-66.637 -114.06)"/><g transform="translate(14.102 4.2)"><g transform="translate(33.074)"><path class="c" d="M287.212,141.022l-14.061-12.7L289.4,112.364,301.44,123.24Z" transform="translate(-273.151 -112.364)"/><path class="d" d="M314.715,177.755l-5.919-5.437,20.146-12.345Z" transform="translate(-300.653 -149.097)"/><g transform="translate(21.631 8.977)"><path class="e" d="M369.526,153.276a.968.968,0,1,1-.069-1.367A.968.968,0,0,1,369.526,153.276Z" transform="translate(-367.84 -151.66)"/><g transform="translate(0.432 0.433)"><path class="f" d="M370.665,154.447a.535.535,0,1,1-.038-.756A.535.535,0,0,1,370.665,154.447Z" transform="translate(-369.733 -153.553)"/></g></g><g transform="translate(16.528 4.425)"><path class="e" d="M347.188,133.35a.968.968,0,1,1-.069-1.367A.967.967,0,0,1,347.188,133.35Z" transform="translate(-345.503 -131.734)"/><g transform="translate(0.433 0.433)"><path class="f" d="M348.328,134.521a.535.535,0,1,1-.038-.756A.535.535,0,0,1,348.328,134.521Z" transform="translate(-347.396 -133.627)"/></g></g><path class="e" d="M337.918,148.916a3.78,3.78,0,0,1-.271-5.333.228.228,0,1,1,.339.306,3.32,3.32,0,0,0,4.927,4.45.228.228,0,0,1,.339.306A3.78,3.78,0,0,1,337.918,148.916Z" transform="translate(-322.163 -136.393)"/><path class="e" d="M354.54,126.247a.228.228,0,0,1-.016-.322l2.412-2.671a3.2,3.2,0,1,0-4.753-4.293l-2.412,2.671a.228.228,0,1,1-.339-.306l2.412-2.671a3.658,3.658,0,0,1,5.43,4.9l-2.412,2.671A.228.228,0,0,1,354.54,126.247Z" transform="translate(-331.961 -116.289)"/><g transform="translate(9.979 0.953)"><path class="g" d="M326.093,144.679l-9.257-7.748,7.819-13.863,9.442,3.582Z" transform="translate(-316.836 -121.576)"/><path class="h" d="M342.442,156.777l-4.416-3.764,12.421-14.265Z" transform="translate(-333.185 -133.674)"/><g transform="translate(12.226 5.358)"><path class="e" d="M371.634,140.989a.774.774,0,0,1-.95.436.672.672,0,0,1-.23-.947.779.779,0,0,1,.936-.442A.667.667,0,0,1,371.634,140.989Z" transform="translate(-370.357 -139.993)"/><g transform="translate(0.303 0.329)"><path class="i" d="M372.388,141.982a.428.428,0,0,1-.524.242.371.371,0,0,1-.129-.525.43.43,0,0,1,.519-.244A.37.37,0,0,1,372.388,141.982Z" transform="translate(-371.682 -141.431)"/></g></g><g transform="translate(8.453 3.783)"><path class="e" d="M354.941,133.99a.7.7,0,0,1-.833.42.608.608,0,0,1-.171-.856.7.7,0,0,1,.822-.425A.6.6,0,0,1,354.941,133.99Z" transform="translate(-353.841 -133.096)"/><g transform="translate(0.264 0.301)"><path class="i" d="M355.6,134.908a.386.386,0,0,1-.459.233.336.336,0,0,1-.1-.474.388.388,0,0,1,.456-.235A.334.334,0,0,1,355.6,134.908Z" transform="translate(-354.996 -134.413)"/></g></g><path class="e" d="M351.22,146.722a2.65,2.65,0,0,1-.669-3.563.157.157,0,0,1,.192-.1.149.149,0,0,1,.039.207,2.325,2.325,0,0,0,.6,3.137,2.379,2.379,0,0,0,3.068-1.37.175.175,0,0,1,.22-.1.166.166,0,0,1,.054.23C353.958,146.672,352.363,147.355,351.22,146.722Z" transform="translate(-342.554 -136.996)"/><path class="e" d="M360.042,122.647a.157.157,0,0,1-.056-.223l1.31-2.575c.643-1.264.266-2.576-.8-2.912a2.651,2.651,0,0,0-2.9,1.55l-1.215,2.388a.165.165,0,0,1-.2.1.142.142,0,0,1-.041-.2l1.208-2.376a3.036,3.036,0,0,1,3.305-1.775c1.224.377,1.663,1.879.925,3.331l-1.317,2.59A.184.184,0,0,1,360.042,122.647Z" transform="translate(-347.147 -116.536)"/><path class="i" d="M365.362,138.748l-3.7,18.324-2-.5-2.3.2Z" transform="translate(-348.101 -133.674)"/><path class="j" d="M367.425,157.436l5.661-17.571-3.659,18.069Z" transform="translate(-355.868 -134.536)"/></g><g transform="translate(16.395 0.506)"><path class="k" d="M423.911,154.647s-2.075.325-1.838-.283,1.327-.613,1.327-.613Z" transform="translate(-404.434 -144.803)"/><path class="l" d="M393.843,386.9s-.3-.281-.43-.224-.9.056-1.14,1.29-.3,1.009-.3,1.009l.318.411.411-.224s1.7,2.505,2.972,3.066.71-.785.71-.785a11.381,11.381,0,0,0-1.009-2.318C394.816,388.261,393.843,386.9,393.843,386.9Z" transform="translate(-381.225 -324.509)"/><path class="m" d="M400.446,383.286l.194.25s-.159-.239-.331-.551l-.3-.639a1.259,1.259,0,0,1-.111-.566,6.081,6.081,0,0,1,1.159-1.72l-1.009-.972-1.264,1.825c-.1.044-.271.192-.107.692a19.019,19.019,0,0,0,2.505,3.926S401.3,385.189,400.446,383.286Z" transform="translate(-386.339 -318.662)"/><path class="l" d="M362.746,378.713s-.3-.28-.43-.224-.9.056-1.14,1.29-.3,1.01-.3,1.01l.318.411.411-.224s1.7,2.505,2.973,3.066.71-.785.71-.785a11.383,11.383,0,0,0-1.009-2.318C363.719,380.078,362.746,378.713,362.746,378.713Z" transform="translate(-357.232 -318.195)"/><path class="n" d="M369.349,375.1l.194.25s-.159-.239-.331-.551l-.3-.639a1.261,1.261,0,0,1-.111-.567,6.081,6.081,0,0,1,1.159-1.72l-1.01-.972-1.264,1.826c-.1.044-.271.192-.107.692a19.016,19.016,0,0,0,2.505,3.926S370.2,377,369.349,375.1Z" transform="translate(-362.346 -312.347)"/><path class="o" d="M368.225,263.411c.136-.544,10.095,0,10.095,0s6.169,6.73,5.608,13.572-6.281,14.245-6.281,14.245l-1.458-1.346s2.916-9.758,2.468-11.665-2.243-7.366-2.243-7.366,1.234,7.59.336,9.833-6.281,8.973-6.281,8.973l-1.907-1.757s3.851-6.88,3.963-8.9-3.515-6.169-3.963-8.637S367.1,267.9,368.225,263.411Z" transform="translate(-362.507 -229.225)"/><path class="p" d="M423.892,147.633l-.6-.86s-1.795-.187-1.869-1.5,1.309-2.468,2.393-1.271a2.439,2.439,0,0,1,.935,1.757,6.378,6.378,0,0,0,.075,1.5Z" transform="translate(-403.945 -136.898)"/><path class="q" d="M373.134,118.3l.384-.974s-.838-1.6.21-2.385,2.779-.278,2.384,1.288a2.439,2.439,0,0,1-.945,1.752,6.381,6.381,0,0,0-1.2.891Z" transform="translate(-366.689 -114.577)"/><path class="r" d="M348.939,142.76a8.5,8.5,0,0,1,1.57,4.935c-.224,2.468-1.5,8.375-.6,9.571s4.262.15,6.8.374,4.412,1.047,5.683.224-1.047-2.617-.523-6.879,1.047-7.216,4.861-7.889,5.272-2.58,3.926-4.038-4.711-5.608-4.711-5.608l-1.795.785s3.028,4.823,2.355,5.5-5.833.673-7.739,1.234a11.76,11.76,0,0,1-5.608,0c-1.321-.36-4.15-3.926-3.589-6.393s3.7-6.73,3.7-6.73l-2.355-1.458s-7.179,6.954-5.833,9.534S348.939,142.76,348.939,142.76Z" transform="translate(-344.92 -123.687)"/><path class="j" d="M383.257,159.53s-3.041.8-3.39-1.4-.7-6.78,3.539-7.129,4.487,7.478,3.739,7.976S383.257,159.53,383.257,159.53Z" transform="translate(-371.735 -142.675)"/><ellipse class="p" cx="0.449" cy="0.71" rx="0.449" ry="0.71" transform="translate(9.173 12.661)"/><path class="s" d="M390.343,184.531l-.224,2.119s-.05,1.221,1.471,1.221,1.471-1.1,1.471-1.1l-.274-2.343Z" transform="translate(-379.793 -168.474)"/><ellipse class="p" cx="2.368" cy="3.352" rx="2.368" ry="3.352" transform="translate(9.602 10.723)"/><path class="j" d="M385.532,160.118s.424,1.122.872,1.122a20.645,20.645,0,0,0,2.218-.274,2.133,2.133,0,0,0,.05-.972s.15,1.022.324,1.022,1.819.025,1.819.025a1.412,1.412,0,0,0-.274-2.094C389.321,157.925,385.458,157.7,385.532,160.118Z" transform="translate(-376.254 -148.248)"/><path class="t" d="M386.091,162.73s2.175-2.505,4.493-1.215a3.124,3.124,0,0,0-2.056-.935,3,3,0,0,0-2.711,2.075S385.749,162.824,386.091,162.73Z" transform="translate(-376.47 -150.069)"/><g transform="translate(17.44 6.524)"><path class="u" d="M440.622,157.365l-10.466,4.918L421.265,149.9l6.92-6.759Z" transform="translate(-421.265 -143.138)"/><path class="v" d="M464,157.365l-5.052,2.319-7.385-16.546Z" transform="translate(-444.639 -143.138)"/><g transform="translate(5.406 3.474)"><path class="e" d="M446.04,158.653a.741.741,0,0,1,0,1,.643.643,0,0,1-.915-.182.746.746,0,0,1-.006-.992A.64.64,0,0,1,446.04,158.653Z" transform="translate(-444.929 -158.347)"/><g transform="translate(0.287 0.324)"><path class="w" d="M446.8,159.933a.411.411,0,0,1,0,.553.355.355,0,0,1-.508-.1.412.412,0,0,1,0-.55A.354.354,0,0,1,446.8,159.933Z" transform="translate(-446.187 -159.763)"/></g></g><g transform="translate(2.497 6.241)"><path class="e" d="M433.166,170.754a.668.668,0,0,1,.029.894.582.582,0,0,1-.813-.2.673.673,0,0,1-.038-.886A.577.577,0,0,1,433.166,170.754Z" transform="translate(-432.197 -170.458)"/><g transform="translate(0.256 0.29)"><path class="x" d="M433.851,171.893a.37.37,0,0,1,.017.493.321.321,0,0,1-.45-.108.372.372,0,0,1-.02-.491A.32.32,0,0,1,433.851,171.893Z" transform="translate(-433.315 -171.729)"/></g></g><path class="e" d="M442.563,171.4a2.539,2.539,0,0,1-3.366-.856.15.15,0,0,1-.005-.205.143.143,0,0,1,.2.049,2.227,2.227,0,0,0,2.967.747,2.278,2.278,0,0,0,.047-3.218.168.168,0,0,1,0-.231.159.159,0,0,1,.222.046C443.624,169,443.574,170.664,442.563,171.4Z" transform="translate(-435.068 -162.058)"/><path class="e" d="M429.176,149.679a.15.15,0,0,1-.216-.042l-1.709-2.177c-.839-1.068-2.131-1.27-2.852-.48a2.539,2.539,0,0,0,.176,3.147l1.585,2.019a.158.158,0,0,1,.008.21.136.136,0,0,1-.192-.045L424.4,150.3a2.908,2.908,0,0,1-.209-3.587c.821-.911,2.3-.687,3.267.54l1.719,2.189A.176.176,0,0,1,429.176,149.679Z" transform="translate(-423.115 -145.468)"/><path class="y" d="M451.559,143.138l14.427,10.608-1.24,1.539-.751,2.08Z" transform="translate(-444.639 -143.138)"/><path class="z" d="M465.436,155.76l-12.983-12.006,14.223,10.467Z" transform="translate(-445.328 -143.613)"/></g><path class="aa" d="M424.283,147.158s.935,1.084,1.333.76,1.171-1.246.673-1.67S424.109,145.737,424.283,147.158Z" transform="translate(-406.144 -138.802)"/><path class="ab" d="M423.358,146.25s1.072.848,1.471.523,1.171-1.246.673-1.67S423.184,144.829,423.358,146.25Z" transform="translate(-405.431 -137.97)"/></g><path class="e" d="M359.624,118.961a3.2,3.2,0,0,1,5.515,2.778,2.349,2.349,0,0,1,.427.183,3.657,3.657,0,0,0-6.28-3.267l-.268.3a2.725,2.725,0,0,1,.389.25Z" transform="translate(-339.402 -116.288)"/><path class="e" d="M361.32,118.754l.135-.265a2.651,2.651,0,0,1,2.9-1.55c1.064.336,1.441,1.648.8,2.912l.052.037a1.922,1.922,0,0,1,.224.137l.01-.069c.738-1.452.3-2.954-.925-3.331a3.035,3.035,0,0,0-3.305,1.775l-.088.173c.038.032.076.064.112.1S361.293,118.725,361.32,118.754Z" transform="translate(-341.027 -115.585)"/><path class="p" d="M374.817,121.325s1.452-1.848,1.751-1.53-.847,2.54-.847,2.54Z" transform="translate(-351.592 -118.069)"/></g></g></g><g class="ac" transform="translate(277.123 170)"><circle class="af" cx="22.5" cy="22.5" r="22.5"/><circle class="ag" cx="22.5" cy="22.5" r="22"/></g><path class="ad" d="M13.885,8.124H9.079V3.318A1.068,1.068,0,0,0,8.011,2.25H6.943A1.068,1.068,0,0,0,5.874,3.318V8.124H1.068A1.068,1.068,0,0,0,0,9.193v1.068a1.068,1.068,0,0,0,1.068,1.068H5.874v4.806A1.068,1.068,0,0,0,6.943,17.2H8.011a1.068,1.068,0,0,0,1.068-1.068V11.329h4.806a1.068,1.068,0,0,0,1.068-1.068V9.193A1.068,1.068,0,0,0,13.885,8.124Z" transform="translate(292.147 183.555)"/><g transform="translate(264.526 135.729)"><path class="ae" d="M9.266,3.008l-.524.751L.828,15.081h4.3v18.2H44.98v-18.2h4.3L40.839,3.008Zm2.081,3.027h1.005v6.019H7.143Zm4.63,0H19.6v6.019H15.977Zm7.249,0h3.624v6.019H23.226Zm7.249,0H34.1v6.019H30.475Zm7.249,0h1.034l4.2,6.019H37.724Zm-3.631,9.046h7.263V30.252H34.093ZM8.75,15.116H30.468V30.252H8.75Z" transform="translate(-0.828 -3.008)"/></g></g></svg>