<svg xmlns="http://www.w3.org/2000/svg" width="17.011" height="10.413" viewBox="0 0 17.011 10.413"><defs><style>.a{fill:#2f6944;}</style></defs><g transform="translate(0)"><path class="a" d="M16.908,9.311A9.584,9.584,0,0,0,8.505,4.5,9.585,9.585,0,0,0,.1,9.311a.814.814,0,0,0,0,.792,9.584,9.584,0,0,0,8.4,4.811,9.585,9.585,0,0,0,8.4-4.811A.814.814,0,0,0,16.908,9.311Zm-8.4,4.3A4.09,4.09,0,0,1,4.253,9.707,4.09,4.09,0,0,1,8.505,5.8a4.09,4.09,0,0,1,4.253,3.905A4.088,4.088,0,0,1,8.505,13.612Zm0-6.508a3.047,3.047,0,0,0-.747.1,1.22,1.22,0,0,1-.139,1.687,1.508,1.508,0,0,1-1.837.128,2.5,2.5,0,0,0,1.154,2.837,3.035,3.035,0,0,0,3.3-.1,2.475,2.475,0,0,0,.957-2.9A2.822,2.822,0,0,0,8.505,7.1Z" transform="translate(0 -4.5)"/></g></svg>