<svg xmlns="http://www.w3.org/2000/svg" width="22.097" height="16.473" viewBox="0 0 22.097 16.473"><defs><style>.a{fill:#25bba2;}</style></defs><path class="a" d="M20.26,9.695,22.074,3c.131-.483-.307-.943-.9-.943H6.108L5.756.617A.9.9,0,0,0,4.854,0H.921A.856.856,0,0,0,0,.772v.515a.856.856,0,0,0,.921.772H3.6L6.3,13.109a1.775,1.775,0,0,0-1.079,1.563,2,2,0,0,0,2.148,1.8,2,2,0,0,0,2.148-1.8,1.669,1.669,0,0,0-.645-1.287h8.043a1.669,1.669,0,0,0-.645,1.287,2,2,0,0,0,2.148,1.8,2,2,0,0,0,2.148-1.8,1.806,1.806,0,0,0-1.211-1.622l.212-.781c.131-.483-.307-.943-.9-.943H8.368L8.117,10.3H19.363A.9.9,0,0,0,20.26,9.695Z"/></svg>