<svg xmlns="http://www.w3.org/2000/svg" width="108.916" height="117" viewBox="0 0 108.916 117"><defs><style>.a{fill:#34c3ea;opacity:0.1;}.b{fill:#cce9ff;}.c{fill:#efaca5;}.d{fill:#e7ad87;}.e{fill:#2a94f4;}.f{fill:#0b4870;}.g{fill:#fab9af;}.h{fill:#ffbe55;}.i,.k,.l,.m{fill:#fff;}.j{fill:#31a1f4;}.k{opacity:0.39;}.l{font-size:5px;}.l,.m{font-family:SegoeUI-Semibold, Segoe UI;font-weight:600;}.m{font-size:6px;}.n{fill:#ffa40b;stroke:#ff7712;}.o{stroke:none;}.p{fill:none;}</style></defs><g transform="translate(-135 -292)"><g transform="translate(135 292)"><g transform="translate(0 0.885)"><path class="a" d="M665.6,184.764c-5.57-7.951-13.855-17.723-11.665-34.565,2.5-19.247,31.447-49.8,62.406-26.888,12.164,9.01,12.831,29.542,29.09,24.281s27.2,35.589,2.773,40.886S676.168,199.857,665.6,184.764Z" transform="translate(-653.573 -115.138)"/><ellipse class="a" cx="43.004" cy="4.333" rx="43.004" ry="4.333" transform="translate(10.287 70.483)"/></g><g transform="translate(32.209 15.558)"><g transform="translate(14.044 9.069)"><path class="b" d="M1132.877,582.951c-1.274-.928-10.629-.583-11.5,0s.988,2.238,3.94,3.9c1.238.7,2,1.393,3.69.107S1133.734,583.57,1132.877,582.951Z" transform="translate(-1111.757 -550.505)"/><rect class="b" width="2.488" height="11.272" transform="translate(14.097 35.791)"/><path class="b" d="M1101.873,712.088H1117.2a.483.483,0,0,0,.488-.488h0a.486.486,0,0,0-.4-.476l-6.344-1.024h-2.488l-6.642,1.024a.486.486,0,0,0-.417.476h0A.473.473,0,0,0,1101.873,712.088Z" transform="translate(-1094.346 -663.025)"/><path class="b" d="M1063.285,314.616c-7.725-.333-9.987,6.713-10.427,11.248s-1.655,8.618-5.2,10.522-6.915,2.773-4.868,5.844,9.082,6.166,15.4,6.011,12.783-3.535,14.545-12.593S1070.938,314.949,1063.285,314.616Z" transform="translate(-1042.166 -314.604)"/></g><g transform="translate(0 0)"><path class="c" d="M1144.3,713.1l.464,1.666-2.249.678-.714-2.047Z" transform="translate(-1115.897 -656.6)"/><path class="c" d="M1048.3,703v1.333h2l.226-1.333Z" transform="translate(-1033.526 -647.702)"/><g transform="translate(14.072 12.14)"><g transform="translate(0 2.055)"><path class="c" d="M1078.279,360.152l-3.023,7.451-.072.167a1.147,1.147,0,0,1-1.059.714l-8.594-.06a.628.628,0,0,1-.1-1.25l8.522-1.25-1.131.881,2.035-7.784a1.8,1.8,0,0,1,3.487.917A1.5,1.5,0,0,1,1078.279,360.152Z" transform="translate(-1062.222 -357.673)"/><path class="d" d="M1046.649,435.76l-2.94-.06a1.391,1.391,0,0,0-1.309,1.464h4.285Z" transform="translate(-1042.4 -426.413)"/></g><g transform="translate(11.308)"><path class="e" d="M1137.4,345.849l4.7,1.143.774-4.19a2.032,2.032,0,0,0-1.726-2.369h0a2.049,2.049,0,0,0-2.238,1.321Z" transform="translate(-1137.4 -340.411)"/></g></g><path class="f" d="M1055.613,454.6l-14.485,7.356a3.8,3.8,0,0,0-2.071,3.607l1.095,18.616h2.226l3-19.913,11.284-7.915Z" transform="translate(-1025.377 -428.868)"/><path class="f" d="M1125.2,238.721s4.749-2.107,7.3,4.7c2.369,6.308-.262,5.071-4.095,5.094-3.118.024-8.629,2.976-7.237-.917a7.858,7.858,0,0,0,.476-4.535Z" transform="translate(-1097.52 -238.413)"/><path class="e" d="M1153.305,324.5l-2.083.928a3.406,3.406,0,0,0-2.023,3.142c.036,2.738.655,9.522,2.964,12.129h7.046c1.095-4.809.464-12.2.464-12.2a3.483,3.483,0,0,0-3.059-3.595Z" transform="translate(-1122.415 -314.253)"/><g transform="translate(23.277 0.308)"><g transform="translate(1.329 2.321)"><path class="c" d="M1170.071,299.351h0a1.34,1.34,0,0,1-1.488-1.167L1168,293.71l2.678-.309.571,4.44A1.348,1.348,0,0,1,1170.071,299.351Z" transform="translate(-1163.584 -289.484)"/><path class="g" d="M1135.173,268.058l-.107.012a3.258,3.258,0,0,1-3.654-2.809l-.512-3.9,6.57-.857.512,3.9A3.26,3.26,0,0,1,1135.173,268.058Z" transform="translate(-1130.9 -260.5)"/></g><path class="f" d="M1128.358,245.725l-.559,1.166s-.75.643-.964-.976c-.179-1.381-1.178-1.143-1.178-1.143s-3.428,2.595-5.44.809c-1.583-1.4.976-3.975,3.916-4.583l3.857,1.678Z" transform="translate(-1119.732 -241)"/><path class="g" d="M1183.921,278.666c.083.714.262,1.238.857,1.166a2.616,2.616,0,0,0,.679-1.44c.083-.714-.024-1.214-.619-1.143A1.21,1.21,0,0,0,1183.921,278.666Z" transform="translate(-1176.272 -272.929)"/></g><path class="f" d="M1086.675,460.6h-7.046l-11.272,6.808a3.078,3.078,0,0,0-1.226,3.892l8.653,19.651,2.5-.3-4.654-18.961c3.9-.167,11.141-.75,13.033-2.868C1089.877,465.254,1086.675,460.6,1086.675,460.6Z" transform="translate(-1049.881 -434.154)"/><g transform="translate(0 14.103)"><path class="h" d="M936.948,356.912l4.023,10.8H927.914L924.2,357.531a.472.472,0,0,1,.44-.631h12.307Z" transform="translate(-924.174 -356.9)"/><path class="h" d="M1031.5,357h.631a.811.811,0,0,1,.75.524l3.785,10.272h-1.143Z" transform="translate(-1018.725 -356.988)"/><path class="h" d="M956.174,448.836h12.748V447.8H955.9v.762A.277.277,0,0,0,956.174,448.836Z" transform="translate(-952.124 -436.98)"/><path class="h" d="M1065.3,448.747h8.058a.528.528,0,0,0,.524-.524h0a.528.528,0,0,0-.524-.524H1065.3Z" transform="translate(-1048.502 -436.892)"/><path class="i" d="M986.871,394.424a1.3,1.3,0,0,1-.667,1.714,1.316,1.316,0,0,1-1.559-.988,1.193,1.193,0,1,1,2.226-.726Z" transform="translate(-977.37 -389.044)"/></g><g transform="translate(19.559 11.879)"><g transform="translate(0 2.095)"><path class="g" d="M1124.4,358.312l-3.023,7.594-.071.167a1.156,1.156,0,0,1-1.071.726l-8.606-.059a.638.638,0,0,1-.631-.643.619.619,0,0,1,.547-.619l8.51-1.262-1.143.893,2.024-7.927a1.819,1.819,0,0,1,3.523.9A.792.792,0,0,1,1124.4,358.312Z" transform="translate(-1108.322 -355.814)"/><path class="g" d="M1092.749,435.26l-2.94-.06a1.406,1.406,0,0,0-1.309,1.488h4.285Z" transform="translate(-1088.5 -425.751)"/></g><g transform="translate(11.308)"><path class="j" d="M1183.5,343.747l4.7,1.166.774-4.273a2.06,2.06,0,0,0-1.726-2.4h0a2.053,2.053,0,0,0-2.238,1.345Z" transform="translate(-1183.5 -338.214)"/></g></g><path class="f" d="M1103.93,717.725l-1.095,1.083-2.464.6a.772.772,0,0,0-.548.5l-.131.357a.27.27,0,0,0,.262.357l7.939-.19a.444.444,0,0,0,.44-.488l-.631-2.25-1.2.286a1.509,1.509,0,0,1-1.2-.119l-.428-.25A.777.777,0,0,0,1103.93,717.725Z" transform="translate(-1078.789 -660.475)"/><path class="f" d="M1008.33,704.625l-1.095,1.083-2.464.6a.772.772,0,0,0-.547.5l-.131.357a.27.27,0,0,0,.262.357l7.177-.155a.444.444,0,0,0,.44-.488l-.19-2.3-.881.3a1.509,1.509,0,0,1-1.2-.119l-.428-.25A.773.773,0,0,0,1008.33,704.625Z" transform="translate(-994.568 -648.934)"/></g></g><g transform="translate(20.785 0)"><g transform="translate(0.005 41.341)"><path class="f" d="M921.345,502.341a.2.2,0,0,0,.083-.012.466.466,0,0,0,.417-.524l-6.487-31.7a.5.5,0,0,0-.6-.369.466.466,0,0,0-.417.524l6.5,31.7A.483.483,0,0,0,921.345,502.341Z" transform="translate(-904.09 -467.981)"/><path class="f" d="M828.758,502.366a.483.483,0,0,0,.5-.381l6.927-31.7a.46.46,0,0,0-.417-.524.522.522,0,0,0-.6.369l-6.927,31.7a.46.46,0,0,0,.417.524A.262.262,0,0,0,828.758,502.366Z" transform="translate(-828.239 -468.006)"/><rect class="f" width="60.906" height="2.952" transform="translate(64.298 2.952) rotate(180)"/><rect class="f" width="12.486" height="0.893" transform="translate(15.106 23.224) rotate(180)"/><path class="f" d="M1312.433,502.341a.2.2,0,0,0,.083-.012.466.466,0,0,0,.417-.524l-6.475-31.7a.5.5,0,0,0-.6-.369.466.466,0,0,0-.417.524l6.487,31.7A.492.492,0,0,0,1312.433,502.341Z" transform="translate(-1248.639 -467.981)"/><path class="f" d="M1219.758,502.366a.483.483,0,0,0,.5-.381l6.927-31.7a.46.46,0,0,0-.417-.524.522.522,0,0,0-.595.369l-6.927,31.7a.46.46,0,0,0,.417.524A.263.263,0,0,0,1219.758,502.366Z" transform="translate(-1172.699 -468.006)"/><rect class="f" width="12.486" height="0.893" transform="translate(61.652 23.224) rotate(180)"/></g><g transform="translate(0 19.162)"><path class="h" d="M837.4,287.248H830.15A1.25,1.25,0,0,1,828.9,286V278.75a1.25,1.25,0,0,1,1.25-1.25H837.4a1.25,1.25,0,0,1,1.25,1.25V286A1.25,1.25,0,0,1,837.4,287.248Z" transform="translate(-828.817 -276.451)"/><path class="k" d="M835.556,286.456H829.2a1.006,1.006,0,0,1-1-1V279.1a1.006,1.006,0,0,1,1-1h6.356a1.006,1.006,0,0,1,1,1v6.356A1,1,0,0,1,835.556,286.456Z" transform="translate(-828.2 -276.98)"/><text class="l" transform="translate(1.215 4.838)"><tspan x="0" y="0">O</tspan></text></g><g transform="translate(10.469)"><path class="h" d="M986.01,117.448h-7.26a1.25,1.25,0,0,1-1.25-1.25V108.95a1.25,1.25,0,0,1,1.25-1.25H986a1.25,1.25,0,0,1,1.25,1.25V116.2A1.247,1.247,0,0,1,986.01,117.448Z" transform="translate(-977.5 -105.875)"/><path class="h" d="M986.01,117.448h-7.26a1.25,1.25,0,0,1-1.25-1.25V108.95a1.25,1.25,0,0,1,1.25-1.25H986a1.25,1.25,0,0,1,1.25,1.25V116.2A1.247,1.247,0,0,1,986.01,117.448Z" transform="translate(-956.812 -107.092)"/><path class="k" d="M985.056,116.656H978.7a1.006,1.006,0,0,1-1-1V109.3a1.006,1.006,0,0,1,1-1h6.356a1.006,1.006,0,0,1,1,1v6.356A1,1,0,0,1,985.056,116.656Z" transform="translate(-977.676 -106.403)"/><path class="k" d="M985.056,116.656H978.7a1.006,1.006,0,0,1-1-1V109.3a1.006,1.006,0,0,1,1-1h6.356a1.006,1.006,0,0,1,1,1v6.356A1,1,0,0,1,985.056,116.656Z" transform="translate(-956.988 -107.62)"/><text class="m" transform="translate(1.746 7)"><tspan x="0" y="0">R</tspan></text><text class="m" transform="translate(22.746 6)"><tspan x="0" y="0">D</tspan></text></g><g transform="translate(66.643 31.265)"><path class="h" d="M1396.6,382.548h-7.249a1.25,1.25,0,0,1-1.25-1.25V374.05a1.25,1.25,0,0,1,1.25-1.25h7.249a1.25,1.25,0,0,1,1.25,1.25V381.3A1.25,1.25,0,0,1,1396.6,382.548Z" transform="translate(-1388.1 -372.511)"/><path class="k" d="M1395.656,381.756H1389.3a1.006,1.006,0,0,1-1-1V374.4a1.006,1.006,0,0,1,1-1h6.356a1.006,1.006,0,0,1,1,1v6.356A1,1,0,0,1,1395.656,381.756Z" transform="translate(-1388.276 -373.039)"/><text class="m" transform="translate(1.572 5.736)"><tspan x="0" y="0">R</tspan></text></g><g transform="translate(51.908 7.06)"><path class="h" d="M1273,182.548h-7.249a1.25,1.25,0,0,1-1.25-1.25V174.05a1.25,1.25,0,0,1,1.25-1.25H1273a1.25,1.25,0,0,1,1.25,1.25V181.3A1.25,1.25,0,0,1,1273,182.548Z" transform="translate(-1264.476 -172.111)"/><path class="k" d="M1271.656,181.156H1265.3a1.006,1.006,0,0,1-1-1V173.8a1.006,1.006,0,0,1,1-1h6.356a1.006,1.006,0,0,1,1,1v6.356A1,1,0,0,1,1271.656,181.156Z" transform="translate(-1264.3 -172.111)"/><text class="m" transform="translate(2.307 5.94)"><tspan x="0" y="0">E</tspan></text></g></g></g><g transform="translate(166.265 363.606)"><g class="n" transform="translate(-0.265 0.394)"><circle class="o" cx="22.5" cy="22.5" r="22.5"/><circle class="p" cx="22.5" cy="22.5" r="22"/></g><path class="i" d="M13.885,8.124H9.079V3.318A1.068,1.068,0,0,0,8.011,2.25H6.943A1.068,1.068,0,0,0,5.874,3.318V8.124H1.068A1.068,1.068,0,0,0,0,9.193v1.068a1.068,1.068,0,0,0,1.068,1.068H5.874v4.806A1.068,1.068,0,0,0,6.943,17.2H8.011a1.068,1.068,0,0,0,1.068-1.068V11.329h4.806a1.068,1.068,0,0,0,1.068-1.068V9.193A1.068,1.068,0,0,0,13.885,8.124Z" transform="translate(15.348 13.377)"/></g></g></svg>