<svg xmlns="http://www.w3.org/2000/svg" width="16.753" height="17.023" viewBox="0 0 16.753 17.023">
  <path id="Icon_awesome-power-off" data-name="Icon awesome-power-off" d="M13.8,1.827a8.375,8.375,0,1,1-9.734,0,.813.813,0,0,1,1.182.26l.534.949a.81.81,0,0,1-.223,1.047,5.674,5.674,0,1,0,6.752,0,.806.806,0,0,1-.22-1.044l.534-.949A.81.81,0,0,1,13.8,1.827ZM10.29,8.917V.811A.809.809,0,0,0,9.479,0H8.4a.809.809,0,0,0-.811.811V8.917a.809.809,0,0,0,.811.811H9.479A.809.809,0,0,0,10.29,8.917Z" transform="translate(-0.563)" fill="#25bba2"/>
</svg>
