<svg xmlns="http://www.w3.org/2000/svg" width="107.208" height="115" viewBox="0 0 107.208 115"><defs><style>.a{fill:#ff9c7a;}.b{fill:#fe9936;}.c{fill:#fff;}.d{fill:#fb6b00;}.e{fill:#d94635;}.f{fill:#ff7925;}.g{fill:#c9eff8;}.h{fill:#ffa40b;stroke:#ff7712;}.i{stroke:none;}.j{fill:none;}</style></defs><g transform="translate(-155 -456)"><g transform="translate(153 450)"><path class="a" d="M58.972,9.107l3.355,1.7-3.355,1.7-1.835,3.107L55.3,12.5l-3.354-1.7,3.354-1.7L57.137,6Z" transform="translate(-6.764 0)"/><path class="a" d="M20.764,113.112l3.355,1.7-3.355,1.7-1.835,3.107-1.835-3.107-3.354-1.7,3.354-1.7,1.835-3.107Z" transform="translate(-1.59 -20.667)"/><g transform="translate(2 8.177)"><path class="b" d="M49.739,30.018c-12.885-.046-34.855-.093-47.739-.14V87.34H49.777S49.751,35.456,49.739,30.018Z" transform="translate(-2 -12.922)"/><path class="c" d="M37.072,78.165H13.858a1.607,1.607,0,1,1,0-3.205H37.073a1.607,1.607,0,1,1,0,3.205Zm0-8.4H13.858a1.607,1.607,0,1,1,0-3.205H37.073a1.607,1.607,0,1,1,0,3.205Zm6.285,16.455H34.515a1.607,1.607,0,1,1,0-3.205h8.842a1.607,1.607,0,1,1,0,3.205ZM30.8,61.653H13.858a1.607,1.607,0,1,1,0-3.205H30.8a1.607,1.607,0,1,1,0,3.205Z" transform="translate(-3.372 -18.599)"/><rect class="d" width="9.085" height="8.324" transform="translate(10.797 24.952)"/><path class="e" d="M52.216,60.474l-5.728.926-.163-5.273L60.431,39.814l6,4.359Z" transform="translate(-8.003 -14.896)"/><g transform="translate(57.073)"><path class="f" d="M90.071,95.761H79.824a1.67,1.67,0,0,1-1.729-1.6V17.316a1.67,1.67,0,0,1,1.729-1.6H90.071a1.607,1.607,0,1,1,0,3.205H81.553V92.556h8.518a1.607,1.607,0,1,1,0,3.205Z" transform="translate(-69.378 -10.107)"/><path class="f" d="M88.706,65.9H69.742a1.607,1.607,0,1,1,0-3.205H88.706a1.607,1.607,0,1,1,0,3.205Z" transform="translate(-68.013 -19.443)"/><g transform="translate(29.907)"><rect class="g" width="20.227" height="12.998"/><rect class="g" width="20.227" height="12.998" transform="translate(0 39.159)"/><rect class="g" width="20.227" height="12.998" transform="translate(0 76.711)"/></g></g></g></g><g transform="translate(-43 -6)"><g class="h" transform="translate(228 532)"><circle class="i" cx="22.5" cy="22.5" r="22.5"/><circle class="j" cx="22.5" cy="22.5" r="22"/></g><path class="c" d="M7.371-.024a7.371,7.371,0,0,0,0,14.741,7.285,7.285,0,0,0,3.5-.863,2.106,2.106,0,0,0,.274.274l2.106,2.106A2.148,2.148,0,1,0,16.279,13.2L14.173,11.1a2.106,2.106,0,0,0-.337-.274,7.272,7.272,0,0,0,.927-3.5A7.379,7.379,0,0,0,7.392-.045Zm0,2.106a5.24,5.24,0,0,1,5.265,5.265,5.281,5.281,0,0,1-1.39,3.622l-.063.063a2.106,2.106,0,0,0-.274.274A5.27,5.27,0,0,1,7.35,12.633a5.265,5.265,0,0,1,0-10.53Z" transform="translate(242 546.045)"/></g></g></svg>